<?xml version="1.0" encoding="utf-8"?>
<!-- Generator: Adobe Illustrator 26.3.1, SVG Export Plug-In . SVG Version: 6.00 Build 0)  -->
<svg version="1.1" id="Layer_1" xmlns="http://www.w3.org/2000/svg" xmlns:xlink="http://www.w3.org/1999/xlink" x="0px" y="0px"
	 viewBox="0 0 16 16" style="enable-background:new 0 0 16 16;" xml:space="preserve">
<style type="text/css">
	.st0{fill:none;}
	.st1{fill:#FFFFFF;}
</style>
<g>
	<path class="st0" d="M2.9,15.4c-0.7,0-1.3-0.6-1.3-1.3l0-5c0-0.2-0.1-0.3-0.2-0.4S1.2,8.6,1,8.6H0.6V7.4H1c0.3,0,0.6-0.3,0.6-0.6
		l0-5c0-0.7,0.6-1.3,1.3-1.3h10.3c0.7,0,1.3,0.6,1.3,1.3l0,5c0,0.2,0.1,0.3,0.2,0.4c0.1,0.1,0.3,0.2,0.4,0.2h0.4v1.1H15
		c-0.2,0-0.3,0.1-0.4,0.2c-0.1,0.1-0.2,0.3-0.2,0.4l0,5c0,0.7-0.6,1.3-1.3,1.3H2.9z"/>
	<path class="st1" d="M13.1,1.1c0.4,0,0.7,0.3,0.7,0.7l0,5c0,0.3,0.1,0.6,0.3,0.8C14.4,7.8,14.6,8,14.9,8v0c-0.3,0-0.5,0.1-0.7,0.3
		c-0.2,0.2-0.3,0.5-0.3,0.8l0,5c0,0.4-0.3,0.7-0.7,0.7H2.9c-0.4,0-0.7-0.3-0.7-0.7l0-5c0-0.3-0.1-0.6-0.3-0.8C1.7,8.1,1.4,8,1.1,8v0
		c0.6-0.1,1-0.6,1-1.1l0-5c0-0.4,0.3-0.7,0.7-0.7H13.1 M13.1,0H2.9C1.8,0,1,0.8,1,1.9l0,5H0v2.3h1l0,5c0,1,0.8,1.9,1.9,1.9h10.3
		c1,0,1.9-0.8,1.9-1.9l0-5h1V6.8h-1l0-5C15,0.8,14.2,0,13.1,0L13.1,0z"/>
</g>
<path class="st1" d="M8.2,14.2c-1.2,0-2.2-0.3-3-0.8s-1.4-1.2-1.7-2.2l2-1.2c0.5,1.2,1.4,1.8,2.7,1.8c0.7,0,1.1-0.1,1.4-0.4
	c0.3-0.2,0.5-0.5,0.5-0.9c0-0.4-0.2-0.7-0.6-1c-0.4-0.2-1-0.5-2-0.8c-0.5-0.2-1-0.3-1.4-0.5C5.9,8.3,5.5,8.1,5.1,7.8
	c-0.4-0.3-0.6-0.6-0.8-1C4.1,6.4,4,5.9,4,5.3c0-1.1,0.4-1.9,1.1-2.6c0.8-0.6,1.7-1,2.8-1c1,0,1.8,0.2,2.5,0.7c0.7,0.5,1.3,1.1,1.7,2
	l-2,1.1c-0.5-1-1.2-1.5-2.3-1.5C7.4,4.1,7,4.2,6.8,4.4C6.5,4.6,6.3,4.9,6.3,5.3c0,0.4,0.2,0.7,0.5,0.9c0.3,0.2,0.9,0.5,1.8,0.8
	C9,7.1,9.2,7.1,9.4,7.2c0.2,0.1,0.4,0.2,0.8,0.3c0.3,0.1,0.6,0.3,0.7,0.4s0.4,0.3,0.6,0.5c0.2,0.2,0.4,0.4,0.5,0.6
	c0.1,0.2,0.2,0.5,0.3,0.7s0.1,0.6,0.1,0.9c0,1.1-0.4,2-1.2,2.6C10.5,13.9,9.5,14.2,8.2,14.2z"/>
</svg>
