<?xml version="1.0" encoding="utf-8"?>
<!-- Generator: Adobe Illustrator 26.3.1, SVG Export Plug-In . SVG Version: 6.00 Build 0)  -->
<svg version="1.1" id="Layer_1" xmlns="http://www.w3.org/2000/svg" xmlns:xlink="http://www.w3.org/1999/xlink" x="0px" y="0px"
	 viewBox="0 0 16 16" style="enable-background:new 0 0 16 16;" fill="#fff" xml:space="preserve">
<path d="M16,1.5V0.8c0-0.2-0.2-0.4-0.4-0.4h-1.5c-0.2,0-0.3,0-0.4,0v0c0-0.2-0.2-0.4-0.4-0.4H11c-0.7,0-0.9,0.4-1,0.8H9.7
	C9.6,0.6,9.5,0.5,9.5,0.4C9.5,0.2,9.4,0,9.1,0H6.5C6.3,0,6.1,0.1,6.1,0.3c0,0.1-0.2,0.4-0.4,0.4h-1c0,0-0.1-0.1-0.1-0.2
	C4.5,0.5,4.3,0.4,4.2,0.4H0.4C0.2,0.4,0,0.6,0,0.8v3c0,1.1,0.3,2.4,0.4,2.7l0,0.6L0.1,7.3C0,7.4,0,7.5,0,7.6v1.5
	c0,0.1,0,0.2,0.1,0.3l0.3,0.3v1.7L0,12.5c0,0.1,0,0.1,0,0.2l0.4,1.4l-0.3,1c0,0.1,0,0.2,0.1,0.3c0.1,0.1,0.2,0.2,0.3,0.2h5.3
	c0.1,0,0.2,0,0.3-0.1l0,0C6.2,15.7,6.5,16,6.9,16H8c0.3,0,0.5-0.1,0.7-0.2c0.1-0.1,0.3-0.2,0.4-0.2H11c0.1,0,0.2,0,0.3-0.1l0.1-0.1
	c0,0,0,0.1,0.1,0.1c0.2,0.2,0.4,0.5,0.7,0.5h1.9c0.2,0,0.4-0.2,0.4-0.4v-0.3l1.1,0.3c0.1,0,0.2,0,0.3-0.1c0.1-0.1,0.1-0.2,0.1-0.3
	c0,0,0-3.8,0-5.7c0-0.1,0-0.2-0.1-0.3L15.6,9V7.2c0-0.1,0-0.2-0.1-0.3l-0.2-0.2l0.2-0.5L15.9,6C16,5.9,16,5.8,16,5.7l0-1.9
	c0,0,0-0.1,0-0.1l-0.3-1.4L16,1.7C16,1.6,16,1.6,16,1.5z M11.5,3l1.2,0.8l-0.4,2.3L9.1,3.8L11.5,3z M4.2,13l-1.5-1.1l0.8-2.7l3,3
	L4.2,13z M12.3,12.6h-1.8L2.7,3.4L4.1,3l9.2,7.1L12.3,12.6z"/>
</svg>
