<?xml version="1.0" encoding="utf-8"?>
<!-- Generator: Adobe Illustrator 26.3.1, SVG Export Plug-In . SVG Version: 6.00 Build 0)  -->
<svg version="1.1" id="Layer_1" xmlns="http://www.w3.org/2000/svg" xmlns:xlink="http://www.w3.org/1999/xlink" x="0px" y="0px"
	 viewBox="0 0 16 16" style="enable-background:new 0 0 16 16;" xml:space="preserve">
<style type="text/css">
	.st0{fill-rule:evenodd;clip-rule:evenodd;fill:#FFFFFF;}
</style>
<path class="st0" d="M15.4,3.9c0.1-0.4,0-0.6-0.5-0.6h-1.8c-0.4,0-0.7,0.2-0.8,0.5c0,0-0.9,2.2-2.2,3.6C9.9,7.8,9.7,7.9,9.5,7.9
	c-0.1,0-0.3-0.1-0.3-0.5V3.9c0.1-0.4-0.1-0.6-0.4-0.6H6c-0.3,0-0.4,0.2-0.4,0.4c0,0.4,0.6,0.5,0.7,1.7V8c0,0.6-0.1,0.7-0.3,0.7
	c-0.6,0-2-2.2-2.9-4.7C3,3.5,2.8,3.3,2.4,3.3H0.6C0.1,3.3,0,3.5,0,3.8c0,0.5,0.6,2.8,2.8,5.7c1.4,2.1,3.5,3.2,5.2,3.2
	c1.1,0,1.3-0.3,1.3-0.7v-1.5c0-0.5,0.1-0.6,0.5-0.6c0.3,0,0.7,0.1,1.7,1.1c1.2,1.2,1.4,1.7,2.1,1.7h1.8c0.5,0,0.8-0.3,0.6-0.7
	c-0.2-0.5-0.7-1.2-1.5-2.1c-0.4-0.5-1-1-1.2-1.3c-0.3-0.3-0.2-0.5,0-0.8C13.2,8,15.2,5,15.4,3.9z"/>
</svg>
