<?xml version="1.0" encoding="utf-8"?>
<!-- Generator: Adobe Illustrator 26.3.1, SVG Export Plug-In . SVG Version: 6.00 Build 0)  -->
<svg version="1.1" id="Layer_1" xmlns="http://www.w3.org/2000/svg" xmlns:xlink="http://www.w3.org/1999/xlink" x="0px" y="0px"
	 viewBox="0 0 23 16" style="enable-background:new 0 0 23 16;" xml:space="preserve">
<style type="text/css">
	.st0{fill:#FFFFFF;}
</style>
<path class="st0" d="M14.2,11.2c0.6,1.2,1.8,2,3.2,1.9c1.3,0,2.2-0.7,2.2-1.6c0-1.1-0.9-1.5-2.3-2.1l-0.8-0.3
	c-2.3-1-3.9-2.2-3.9-4.8c0-2.4,1.8-4.2,4.7-4.2c1.9-0.1,3.7,0.9,4.6,2.6l-2.5,1.6c-0.3-0.8-1.2-1.4-2.1-1.4
	c-0.8-0.1-1.5,0.5-1.5,1.2c0,0,0,0.1,0,0.1c0,1,0.6,1.4,2,1.9l0.8,0.3c2.7,1.2,4.3,2.4,4.3,5c0,2.9-2.3,4.5-5.3,4.5
	c-2.4,0.2-4.7-1.1-5.8-3.3L14.2,11.2z M2.9,11.5c0.5,0.9,1,1.6,2.1,1.6c1.1,0,1.7-0.4,1.7-2V0.2h3.2v10.9c0,3.3-1.9,4.8-4.8,4.8
	c-2.1,0.1-4-1.1-4.8-2.9L2.9,11.5z"/>
</svg>
