<svg xmlns="http://www.w3.org/2000/svg" xml:space="preserve" viewBox="0 0 100 33"><path fill-rule="evenodd" d="M8.6.2c2-.4 4.2-.2 6.1.6 2.8 1.2 5 3.7 6 6.6a12 12 0 0 1 0 7.5c-.5 1.6-1.4 3-2.3 4.4L9.9 32.4H6.3l7.4-11.2a7.3 7.3 0 0 1-5.4.8c-2.1-.4-4-1.6-5.4-3.3a12 12 0 0 1-2.8-8.4c.2-2.5 1.2-5 2.8-6.9C4.4 1.8 6.4.6 8.6.2zm1 2.9A8 8 0 0 0 4 7.2c-.8 1.5-1.1 3.3-.8 4.9a8.8 8.8 0 0 0 3.1 5.4c1.3 1 2.8 1.6 4.4 1.5 1.6.1 3.2-.4 4.5-1.4a7.4 7.4 0 0 0 2.8-4.7c.4-2.2 0-4.6-1.2-6.4a7 7 0 0 0-4-3.1c-1-.4-2.1-.4-3.2-.3zm47.2-3c3.6-.3 7.3.6 10.3 2.6a17 17 0 0 1 6.9 9.1 16.5 16.5 0 0 1-20.4 20.5A16.3 16.3 0 0 1 42 19.8 16.5 16.5 0 0 1 56.8.1zm-.2 3c-4 .4-7.7 2.8-9.8 6.3a13.2 13.2 0 0 0 3.5 17.8 13.3 13.3 0 0 0 19.2-3.4A13.5 13.5 0 0 0 56.6 3.1zM24.4.5h17.4v2.9h-7.1v29h-3.1v-29h-7.2V.5zm58.9 0h14.1v2.9H85.8l-1.6 8.9a10 10 0 0 1 11.7.8c2.5 2.1 4 5.3 4 8.5.1 3.4-1.3 6.7-3.9 8.9a10.2 10.2 0 0 1-11.8 1.1 11.8 11.8 0 0 1-5.6-9.2h3.1c.1 1.9.9 3.7 2.1 5a7 7 0 0 0 4.3 2.4c1.9.3 3.8-.2 5.4-1.3a8.3 8.3 0 0 0 3.1-4.8c.7-3-.4-6.4-2.7-8.3a7.2 7.2 0 0 0-5.8-1.6 8.6 8.6 0 0 0-5.2 3.3l-2.5-.9L83.3.5zM57.1 5.9c0-.6.5-1.2 1.1-1.2.6 0 1.1.5 1.1 1.2v11.2c-.1.5-.5.9-1 1h-7.6c-.7 0-1.3-.9-1-1.5.2-.5.6-.8 1.1-.8H57l.1-9.9z" clip-rule="evenodd"/></svg>