<svg xmlns="http://www.w3.org/2000/svg" xml:space="preserve" viewBox="0 0 100 33">
  <path fill-rule="evenodd" d="M8.5.2c2-.4 4.2-.2 6.1.6 2.8 1.2 5 3.7 6 6.6.8 2.4.8 5.1 0 7.5-.5 1.6-1.4 3-2.3 4.4L9.8 32.4H6.2l7.4-11.2c-1.6 1-3.6 1.2-5.4.8-2.1-.4-4-1.6-5.4-3.3-2-2.3-3-5.3-2.8-8.4.2-2.5 1.2-5 2.8-6.9C4.3 1.8 6.3.6 8.5.2zm1 2.9c-2.4.4-4.5 2-5.6 4.1-.8 1.5-1.1 3.3-.8 4.9.3 2.1 1.4 4 3.1 5.4 1.3 1 2.8 1.6 4.4 1.5 1.6.1 3.2-.4 4.5-1.4 1.5-1.2 2.5-2.8 2.8-4.7.4-2.2 0-4.6-1.2-6.4a6.9 6.9 0 0 0-4-3.1c-1-.4-2.1-.4-3.2-.3zm47.3-3c3.6-.3 7.3.6 10.3 2.6 3.3 2.1 5.7 5.4 6.9 9.1a16.5 16.5 0 0 1-20.4 20.5c-5.9-1.7-10.4-6.5-11.6-12.5C40.2 10.9 46 2.2 54.9.4c.7-.2 1.3-.2 1.9-.3zm-.2 3c-4 .4-7.7 2.8-9.8 6.3-3.7 5.9-2.2 13.7 3.5 17.8 5.9 4.4 14.2 3.3 18.7-2.6.2-.3.4-.5.6-.8 4-6.3 2.2-14.6-4.1-18.7-2.7-1.6-5.8-2.4-8.9-2zM24.4.5h17.4v2.9h-7.1v29h-3.1v-29h-7.2V.5zm59 0h14.1v2.9H85.9l-1.6 8.9c3.7-2.3 8.4-2 11.7.8 2.5 2.1 4 5.3 4 8.5.1 3.4-1.3 6.7-3.9 8.9-3.3 2.8-8 3.3-11.8 1.1-3.2-2-5.3-5.4-5.6-9.2h3.1c.1 1.9.9 3.7 2.1 5a7.15 7.15 0 0 0 9.7 1.1 8.1 8.1 0 0 0 3.1-4.8c.7-3-.4-6.4-2.7-8.3a7.14 7.14 0 0 0-5.8-1.6c-2.1.4-3.9 1.6-5.2 3.3l-2.5-.9L83.4.5zM57.1 5.9c0-.6.5-1.2 1.1-1.2.6 0 1.1.5 1.1 1.2v11.2c-.1.5-.5.9-1 1h-7.6c-.7 0-1.3-.9-1-1.5.2-.5.6-.8 1.1-.8H57l.1-9.9z" clip-rule="evenodd"/>
</svg>