<svg xmlns="http://www.w3.org/2000/svg" xml:space="preserve" viewBox="0 0 100 100"><path fill="#fff" d="M12.3.5C5.8.5.5 5.8.5 12.3v75.4c0 6.5 5.3 11.8 11.8 11.8h75.4c6.5 0 11.8-5.3 11.8-11.8V12.3C99.5 5.8 94.2.5 87.7.5H12.3zm0 4.7h75.4c3.9 0 7.1 3.1 7.1 7.1v8c-1.7-2-4.2-3.3-7.1-3.3H12.3c-2.8 0-5.3 1.3-7.1 3.3v-8c0-3.9 3.2-7.1 7.1-7.1zm14.1 25.9c1.3 0 2.4 1.1 2.4 2.4a21.21 21.21 0 0 0 42.4 0c0-1.3 1.1-2.4 2.4-2.4s2.4 1.1 2.4 2.4c0 14.3-11.6 25.9-25.9 25.9s-26-11.6-26-25.9c0-1.3 1-2.4 2.3-2.4z"/></svg>