<svg xmlns="http://www.w3.org/2000/svg" xml:space="preserve" viewBox="0 0 100 25">
  <path fill="#fff" d="M41.7 16.7h3.1V25h2l1.4-2.8v-5.5h3l1.6-3H41.7v3zm-.4 1.1c0-2.7-1.7-4.1-4.2-4.1h-5.3V25h3.4v-3.3h1.4l1.7 3.3h3.6l-2-3.9c.8-.9 1.3-2.1 1.4-3.3zm-4.7 1.3H35v-2.3h1.6c.9 0 1.2.5 1.2 1.1 0 .7-.3 1.2-1.2 1.2zm-11.9-5.4L18.8 25h3.6l.9-1.6h3.9l.5 1.6h3.6l-2.7-11.2s-3.9 0-3.9-.1zm-.2 6.9 1.2-2.5.6 2.5h-1.8zM88.9 0v3H92v8.3h1.9l1.4-2.8V3h3.1l1.6-3H88.9zm-4.1 5.3L81.1 0h-3.3v11.2h3.4V5.5l4.2 5.8h3V0H85v5.3h-.2zM70.8 0l-5.9 11.2h3.4l.9-1.6h3.9l.5 1.6H77L74.4 0h-3.6zm-.2 6.9 1.2-2.5.6 2.5h-1.8zm-9.8 4.3h3.3V0h-3.4v11.2h.1zM53 6.9 51.4 0H48l2.7 11.2h3.6L60.2 0h-3.6L53 6.9zm-6 1.4h-5.3V7h4.8V4.2h-4.8V3H47V0h-8.6v11.2H47V8.3zm-9.7-2.7c0-3.3-2-5.5-5.5-5.6l-1.6 2.8h.9c1.7 0 2.7 1.1 2.7 2.7 0 1.7-1.1 2.7-2.7 2.7H30v-5l-3.3 6.2v1.9h4.5c4.1-.1 6.1-2.2 6.1-5.7z"/>
  <path fill="#00e59b" d="M15.6 0h-4.7l-.3.5-2.2 4-.7.5H0v6.2h4.2l.5.5L0 20.5V25h4.5l.5-.5 2.2-4.1.6-.4h7.8v-6.2h-4.2l-.5-.5 4.7-8.8V0z"/>
</svg>