<?xml version="1.0" encoding="utf-8"?>
<!-- Generator: Adobe Illustrator 27.6.1, SVG Export Plug-In . SVG Version: 6.00 Build 0)  -->
<svg version="1.1" id="Layer_1" xmlns="http://www.w3.org/2000/svg" xmlns:xlink="http://www.w3.org/1999/xlink" x="0px" y="0px"
	 viewBox="0 0 95 85" style="enable-background:new 0 0 95 85;" xml:space="preserve">
<style type="text/css">
	.st0{fill:#FFFFFF;}
</style>
<path class="st0" d="M60.7,0H34.3c-1.6,0-3.1,0.9-3.9,2.3L0.6,55.9c-0.8,1.4-0.8,3.2,0.1,4.6l14.2,22.4c0.8,1.3,2.3,2.1,3.8,2.1
	h57.6c1.5,0,2.9-0.8,3.8-2.1l14.2-22.4c0.9-1.4,0.9-3.2,0.1-4.6L64.6,2.3C63.8,0.9,62.3,0,60.7,0z M60.7,4.5L89.3,56H65.5L39,4.5
	H60.7z M60.5,56H34.1l13.3-25.4C47.4,30.6,60.5,56,60.5,56z M4.5,58.1L34.1,4.9l10.7,20.8L17.3,78.3L4.5,58.1z M76.3,80.5H21.1
	l10.5-20.2h57.3C89,60.4,76.3,80.5,76.3,80.5z"/>
</svg>
