<svg xmlns="http://www.w3.org/2000/svg" xml:space="preserve" viewBox="0 0 95 92">
  <path fill="#fff" fill-rule="evenodd" d="M47.2 0a47.1 47.1 0 0 0-14.7 91.9c2.4.6 3-1.2 3-2.4v-8.2c-13 2.9-15.9-6.5-15.9-6.5-2.4-5.3-5.3-7.1-5.3-7.1-4.1-2.9.6-2.9.6-2.9 4.7.6 7.1 4.7 7.1 4.7 4.1 7.1 11.2 5.3 13.6 4.1.6-2.9 1.8-5.3 3-6.5-10.9-1.1-21.5-5.3-21.5-23.5 0-5.3 1.8-9.4 4.7-12.4-.6-1.2-2.4-5.9.6-12.4 0 0 4.1-1.2 13 4.7l11.8-.5c4.1 0 8.3.6 11.8 1.8 8.9-5.9 13-4.7 13-4.7 2.4 6.5 1.2 11.2.6 12.4 3 3.5 4.7 7.7 4.7 12.4 0 18.3-11.2 22.4-21.2 23 1.2 1.8 3 4.7 3 8.8v13c0 1.2.6 2.9 3.5 2.4a47 47 0 0 0 32.4-45A48.2 48.2 0 0 0 47.2 0" clip-rule="evenodd"/>
</svg>