<svg xmlns="http://www.w3.org/2000/svg" xml:space="preserve" viewBox="0 0 100 75">
  <path fill="#4285f4" d="M6.8 75h15.9V36.4L0 19.3v48.9C0 71.9 3.1 75 6.8 75"/>
  <path fill="#34a853" d="M77.3 75h15.9c3.8 0 6.8-3.1 6.8-6.8V19.3l-22.7 17"/>
  <path fill="#fbbc04" d="M77.3 6.8v29.5l22.7-17v-9.1A10.24 10.24 0 0 0 83.7 2"/>
  <path fill="#ea4335" d="M22.7 36.4V6.8L50 27.3 77.3 6.8v29.5L50 56.8"/>
  <path fill="#c5221f" d="M0 10.2v9.1l22.7 17V6.8L16.4 2C11.8-1.3 5.4-.4 2 4.1.7 5.9 0 8 0 10.2"/>
</svg>