<svg xmlns="http://www.w3.org/2000/svg" xml:space="preserve" viewBox="0 0 100 76"><path fill="#fff" d="M89.1 0c-2.5-.1-5.1.6-7.3 2.2l-5.7 4.2L50 25.7 23.4 6.1l-5.1-3.8C16.1.7 13.5-.1 11 0S6 1.1 4 3c-2.5 2.4-4 5.8-4 9.5v56.2c0 4 3.3 7.3 7.3 7.3h15.6c1.1.1 2-.8 2.1-1.9V39.4l23.8 17.5c.7.5 1.7.5 2.5 0L75 39.4v34.5c0 1.1.9 2.1 2.1 2.1h15.6c4 0 7.3-3.3 7.3-7.3V12.5c0-3.7-1.5-7-3.9-9.4L96 3a10.4 10.4 0 0 0-6.9-3zm-.3 4.2A7 7 0 0 1 93.1 6s.1.1 0 0a9.3 9.3 0 0 1 2.7 6.5v6.4L79.2 31.2V9.4l5.1-3.8c1.3-1 3-1.5 4.5-1.4zm-77.6 0c1.6-.1 3.2.4 4.6 1.4l5.1 3.8v21.8L4.2 18.9v-6.4c0-2.6 1-4.9 2.7-6.5a5.8 5.8 0 0 1 4.3-1.8zM75 12.4v21.8L50 52.7 25 34.2V12.4l23.8 17.5c.7.5 1.7.5 2.5 0L75 12.4zM4.2 24.1l16.7 12.3v35.5H7.3c-1.7.1-3-1.2-3.1-2.9V24.1zm91.6 0v44.7c0 1.7-1.4 3.1-3.1 3.1H79.2V36.3l16.6-12.2z"/></svg>