<svg xmlns="http://www.w3.org/2000/svg" xml:space="preserve" viewBox="0 0 100 75">
  <path d="M89.1 0c-2.5-.1-5.1.6-7.3 2.2l-5.7 4.1L50 25.4 23.4 6l-5.1-3.7C16.1.7 13.5-.1 11 0S6 1.1 4 3c-2.5 2.4-4 5.7-4 9.4v55.4C0 71.7 3.3 75 7.3 75h15.6c1.1.1 2-.8 2.1-1.9V38.9l23.8 17.3c.7.5 1.7.5 2.5 0L75 38.9v34c0 1.1.9 2.1 2.1 2.1h15.6c4 0 7.3-3.3 7.3-7.2V12.3c0-3.7-1.5-6.9-3.9-9.3H96a10.4 10.4 0 0 0-6.9-3zm-.3 4.2c1.6.1 3.1.7 4.3 1.8 0 0 .1.1 0 0 1.7 1.7 2.7 4 2.7 6.4v6.3L79.2 30.8V9.3l5.1-3.7c1.3-1.1 3-1.5 4.5-1.4zm-77.6 0c1.6-.1 3.2.4 4.6 1.4l5.1 3.7v21.5L4.2 18.7v-6.3c0-2.6 1-4.8 2.7-6.4C8 4.8 9.6 4.1 11.2 4.2zm63.8 8v21.5L50 52 25 33.8V12.2l23.8 17.3c.7.5 1.7.5 2.5 0L75 12.2zM4.2 23.8l16.7 12.1v35H7.3c-1.7.1-3-1.2-3.1-2.9V23.8zm91.6 0v44.1c0 1.7-1.4 3.1-3.1 3.1H79.2V35.8l16.6-12z"/>
</svg>