<svg xmlns="http://www.w3.org/2000/svg" viewBox="0 0 50 50"><path d="M24.84 0A1 1 0 0 0 24 1v10H12.9a1 1 0 0 0-.65.31v.03a.47.47 0 0 0-.06.07L.25 24.3A1 1 0 0 0 1 26h10v11c0 .28.1.55.31.75l13 12A1 1 0 0 0 26 49V39h11a1 1 0 0 0 .75-.31l12-13A1 1 0 0 0 49 24H39V13a1 1 0 0 0-.31-.75l-13-12a1 1 0 0 0-.85-.25ZM26 3.31 36.5 13l-9.25 9.25A5.04 5.04 0 0 1 26 18.94V11.9ZM15.34 13H24v5.94a5 5 0 0 1-.53 2.18Zm-2.34.5 9.25 9.25A5.04 5.04 0 0 1 18.94 24H3.3Zm24 1.84V24h-5.94a5 5 0 0 1-2.18-.53Zm-12 7.22c.6 1 1.44 1.84 2.44 2.44-1 .6-1.84 1.44-2.44 2.44-.6-1-1.44-1.84-2.44-2.44 1-.6 1.84-1.44 2.44-2.44ZM13 26h5.94a5 5 0 0 1 2.18.53L13 34.66Zm18.06 0H46.7L37 36.5l-9.25-9.25A5.04 5.04 0 0 1 31.06 26Zm-8.31 1.75A5.04 5.04 0 0 1 24 31.06V46.7L13.5 37Zm3.78 1.13L34.66 37H26v-5.94a5 5 0 0 1 .53-2.18Z"/></svg>