<svg xmlns="http://www.w3.org/2000/svg" xml:space="preserve" viewBox="0 0 100 100"><path fill="#fff" d="M49.7 0C48.7.2 48 1 48 2v20H25.8c-.5 0-1 .3-1.3.6v.1l-.1.1L.5 48.6c-.6.6-.7 1.5-.4 2.2.4.8 1.1 1.2 1.9 1.2h20v22c0 .6.2 1.1.6 1.5l26 24c.6.6 1.5.7 2.2.4.7-.3 1.2-1.1 1.2-1.9V78h22c.6 0 1.1-.2 1.5-.6l24-26c.6-.6.7-1.5.4-2.2-.4-.8-1.1-1.2-1.9-1.2H78V26c0-.6-.2-1.1-.6-1.5l-26-24c-.5-.4-1.1-.6-1.7-.5zM52 6.6 73 26 54.5 44.5C53 42.7 52 40.4 52 37.9V6.6zM30.7 26H48v11.9c0 1.6-.4 3-1.1 4.4L30.7 26zM26 27l18.5 18.5C42.7 47 40.4 48 37.9 48H6.6L26 27zm48 3.7V48H62.1c-1.6 0-3-.4-4.4-1.1L74 30.7zM50 45.1c1.2 2 2.9 3.7 4.9 4.9-2 1.2-3.7 2.9-4.9 4.9-1.2-2-2.9-3.7-4.9-4.9 2-1.2 3.7-2.9 4.9-4.9zM26 52h11.9c1.6 0 3 .4 4.4 1.1L26 69.3V52zm36.1 0h31.2L74 73 55.5 54.5c1.8-1.5 4.1-2.5 6.6-2.5zm-16.6 3.5c1.5 1.8 2.5 4.1 2.5 6.6v31.3L27 74l18.5-18.5zm7.6 2.3L69.3 74H52V62.1c0-1.6.4-3 1.1-4.3z"/></svg>