<svg xmlns="http://www.w3.org/2000/svg" xml:space="preserve" viewBox="0 0 100 100">
  <path d="M49.7 0C48.7.2 48 1 48 2v20H25.8c-.5 0-1 .3-1.3.6v.1l-.1.1L.6 48.6c-.8.8-.8 2.1 0 2.8.4.4.9.6 1.5.6h20v22c0 .6.2 1.1.6 1.5l26 24c.8.8 2.1.7 2.8-.1.4-.4.6-.9.6-1.4V78h22c.6 0 1.1-.2 1.5-.6l24-26c.8-.8.7-2.1-.1-2.8-.5-.4-1-.6-1.6-.6H78V26c0-.6-.2-1.1-.6-1.5l-26-24c-.5-.4-1.1-.6-1.7-.5zM52 6.6 73 26 54.5 44.5c-1.6-1.8-2.5-4.2-2.5-6.6V6.6zM30.7 26H48v11.9c0 1.5-.4 3-1.1 4.4L30.7 26zM26 27l18.5 18.5c-1.8 1.6-4.2 2.5-6.6 2.5H6.7L26 27zm48 3.7V48H62.1c-1.5 0-3-.4-4.4-1.1L74 30.7zM50 45.1c1.2 2 2.9 3.7 4.9 4.9-2 1.2-3.7 2.9-4.9 4.9-1.2-2-2.9-3.7-4.9-4.9 2-1.2 3.7-2.9 4.9-4.9zM26 52h11.9c1.5 0 3 .4 4.4 1.1L26 69.3V52zm36.1 0h31.2L74 73 55.5 54.5c1.8-1.6 4.2-2.5 6.6-2.5zm-16.6 3.5c1.6 1.8 2.5 4.2 2.5 6.6v31.3L27 74l18.5-18.5zm7.6 2.2L69.3 74H52V62.1c0-1.5.4-3 1.1-4.4z"/>
</svg>