<svg xmlns="http://www.w3.org/2000/svg" viewBox="0 0 59 59">
  <g fill="none" fill-rule="evenodd">
    <path d="M-3-3h64v64H-3z"/>
    <g fill-rule="nonzero">
      <path fill="#FFF" d="M14.8 13.4c8.1 0 14.7 6.6 14.7 14.8v1.3H1.3c-.7 0-1.3-.6-1.3-1.3C0 20 6.6 13.4 14.8 13.4z"/>
      <path fill="#FFF" d="M45.6 14.8c0 8.1-6.6 14.7-14.8 14.7h-1.3V1.3c0-.7.6-1.3 1.3-1.3C39 0 45.6 6.6 45.6 14.8z"/>
      <path fill="#FFF" d="M44.3 45.6c-8.2 0-14.8-6.6-14.8-14.8v-1.3h28.2c.7 0 1.3.6 1.3 1.3 0 8.2-6.6 14.8-14.8 14.8z"/>
      <path fill="#FFF" d="M13.4 44.3c0-8.2 6.6-14.8 14.8-14.8h1.3v28.2c0 .7-.6 1.3-1.3 1.3-8.2 0-14.8-6.6-14.8-14.8z"/>
    </g>
  </g>
</svg>
