<svg xmlns="http://www.w3.org/2000/svg" xml:space="preserve" viewBox="0 0 100 100">
  <path fill="#fbbc04" d="M25.1 22.7C38.8 22.7 50 33.9 50 47.8V50H2.2C1 50 0 49 0 47.8c0-13.9 11.2-25.1 25.1-25.1z"/>
  <path fill="#ea4335" d="M77.3 25.1C77.3 38.8 66.1 50 52.2 50H50V2.2C50 1 51 0 52.2 0c13.9 0 25.1 11.2 25.1 25.1z"/>
  <path fill="#4285f4" d="M75.1 77.3C61.2 77.3 50 66.1 50 52.2V50h47.8c1.2 0 2.2 1 2.2 2.2 0 13.9-11.2 25.1-25.1 25.1h.2z"/>
  <path fill="#34a853" d="M22.7 75.1C22.7 61.2 33.9 50 47.8 50H50v47.8c0 1.2-1 2.2-2.2 2.2-13.9 0-25.1-11.2-25.1-25.1v.2z"/>
</svg>