<svg xmlns="http://www.w3.org/2000/svg" xml:space="preserve" viewBox="0 0 100 100"><path d="M73.26 65.19c5.17 5.48 11.63 11.83 11.63 11.83l2.95-3.21S84.02 70.16 77 62.95l-.82-.85a56.87 56.87 0 0 0 3.16-3.75 31.45 31.45 0 0 0 5.29-11.55h8.15v-3.82H74.23v-6.17h-6.24v6.25h-8.86l1.2 3.73h19.8s-1.32 6.36-6.7 12.23c-4.07-4.8-5.18-7.54-5.18-7.54H63.3s.94 2.32 4.08 6.95a39.4 39.4 0 0 0 3.07 3.7 306.21 306.21 0 0 1-3.92 3.94l1.38 4.3c1.04-.95 3.12-2.9 5.35-5.18z"/><path d="M92.78 18.68H51.27L45.26 0H6.24A6.24 6.24 0 0 0 0 6.25v67.83a6.24 6.24 0 0 0 6.24 6.25h41.45L54.44 100h38.34a7.23 7.23 0 0 0 7.22-7.23V25.91a7.23 7.23 0 0 0-7.22-7.23zM42.54 45.27a14.67 14.67 0 0 1-4.11 6.75 14.59 14.59 0 0 1-6.65 3.46c-2.72.62-5.6.64-8.31-.09a16.23 16.23 0 0 1-10.31-23.02 16.32 16.32 0 0 1 9.2-8.07 16.37 16.37 0 0 1 10.94.1c1.94.71 3.71 1.84 5.23 3.24-.51.55-1.06 1.06-1.58 1.6l-2.99 2.99a8.88 8.88 0 0 0-3.5-2.06 9.52 9.52 0 0 0-9.62 2.51 9.87 9.87 0 0 0-2.36 10.16c.68 2 1.99 3.78 3.72 5a9.58 9.58 0 0 0 3.62 1.56c1.28.26 2.6.23 3.88.01A9.33 9.33 0 0 0 33.28 48a7.62 7.62 0 0 0 3.25-5.03h-8.85v-6.35h15.29c.49 2.88.38 5.86-.43 8.65zm55.52 47.5a5.29 5.29 0 0 1-5.27 5.28h-36.7L71.1 80.33l-19.2-59.7h40.88a5.28 5.28 0 0 1 5.27 5.28v66.86z"/></svg>