<svg xmlns="http://www.w3.org/2000/svg" xml:space="preserve" viewBox="0 0 100 35">
  <path fill="#fff" d="M97.3 8.6c-1.3 0-3.2.6-4.4 1.9-.6-1.2-1.8-1.9-3.2-1.9-1.9 0-3.2 1.3-3.2 3.8v10.7c0 2.5 1.3 3.8 3.2 3.8s3.2-1.3 3.2-3.8V18c0-1.9 0-2.5 1.9-3.2.6 0 1.3-.6 1.9-.6 1.9-.6 3.2-1.3 3.2-2.5.6-2-.7-3.1-2.6-3.1zm-16.9 0c-1.9 0-3.2 1.3-3.2 3.8v6.4c0 2.5-.6 3.8-3.2 3.8-2.5 0-3.2-1.3-3.2-3.8v-6.4c0-2.5-1.3-3.8-3.2-3.8s-3.2 1.3-3.2 3.8v7c0 5.1 3.2 8.1 9.3 8.1 5.7 0 9.3-2.5 9.3-8.1v-7.2c.6-2.5 0-3.6-2.6-3.6zm-21.1 0c-.6 0-1.9.6-2.5 1.9-1.3-1.3-2.5-1.9-5-1.9-5 0-9.3 3.8-9.3 9.4s3.8 9.4 8.7 9.4c2.5 0 4.4-.6 5.7-2.5v.6c0 3.2-2.1 4.5-5 4.8-2.1.3-3.2-.2-4.3-.3-.6-.2-1.4-.6-2.1-.6-1.3 0-2.5.6-2.5 1.9 0 1.9 3.2 3.8 8.7 3.8 4.4 0 7.4-1.3 9.3-3.8 1.3-1.9 1.3-5.1 1.3-8.1v-11c.2-2.5-.5-3.6-3-3.6zM53 22.4c-2.5 0-4.4-1.9-4.4-4.5s1.9-4.5 3.8-4.5c2.5 0 4.4 1.9 4.4 4.5s-1.9 4.5-3.8 4.5zM33.1 8.6c-2.5 0-4.4.6-6.3 2.5a7.82 7.82 0 0 0-6.3-2.5c-1.9 0-3.8.6-5 1.9-.5-1.4-1.1-1.9-2.4-1.9-1.9 0-3.2 1.3-3.2 3.8v10.7c0 2.5 1.3 3.8 3.2 3.8s3.2-1.3 3.2-3.8v-6.4c0-2.5.6-3.8 3.2-3.8 1.9 0 2.5 1.3 2.5 4.5v6.4c0 2.5 1.3 3.8 3.2 3.8s3.2-1.3 3.2-3.8v-6.4c0-2.5.6-3.8 3.2-3.8 1.9 0 2.5 1.3 2.5 4.5v6.4c0 2.5.6 3.8 3.2 3.8 1.9 0 3.2-1.3 3.2-3.8v-8.9c-.6-4.6-3.1-7-7.4-7zm-29.3 0C1.9 8.6.6 9.9.6 12.4v10.7c0 2.5 1.3 3.8 3.2 3.8S7 25.6 7 23.1V12.2c-.1-2.5-1.3-3.6-3.2-3.6z"/>
  <path fill="#1bb76e" d="M3.8 0c2.1 0 3.8 1.4 3.8 3.2S5.9 6.4 3.8 6.4 0 4.9 0 3.2 1.7 0 3.8 0z"/>
</svg>