<svg xmlns="http://www.w3.org/2000/svg" xml:space="preserve" viewBox="0 0 78 100">
  <path fill="#fff" d="M40.9 0C13.6 0 0 19.4 0 35.6c0 10 3.7 18.8 11.8 21.9 1.2.6 2.5 0 3.1-1.2 0-1.2.6-3.8 1.2-4.4.6-1.2 0-1.9-.6-3.1-3.1-3.1-4.3-6.2-4.3-11.2C11.1 23.1 22.3 10 39.6 10c15.5 0 24.1 9.4 24.1 21.9 0 16.2-7.4 30.6-18 30.6-6.2 0-10.5-5-9.3-11.2 1.2-7.5 4.3-15 4.3-20.6 0-5-2.5-8.8-8-8.8-6.2 0-11.1 6.2-11.1 15 0 5.6 1.9 9.4 1.9 9.4s-6.2 26.9-7.4 31.3c-2.5 9.4-.6 20.6 0 21.9 0 .6 1.2.6 1.9.6.6-.6 8-10 10.5-18.8.6-2.5 4.3-15.6 4.3-15.6 1.9 3.8 8 6.9 14.2 6.9 18.6 0 31-16.9 31-39.4C77.4 15.6 62.5 0 40.9 0z"/>
</svg>