<svg xmlns="http://www.w3.org/2000/svg" xml:space="preserve" viewBox="0 0 100 90">
  <path fill="#fff" d="M100 45.6c0-6.3-5-10.8-10.6-10.8-3.1 0-5.6 1.3-7.5 3.2a51.4 51.4 0 0 0-30-9.5l5-24.1 16.3 3.8c0 4.4 3.8 7.6 7.5 7.6 4.4 0 7.5-3.8 7.5-7.6 0-4.4-3.8-7.6-7.5-7.6-3.1 0-5.6 1.9-6.9 4.4L56.2 0H55c-.6.6-1.2 1.3-1.2 1.9l-5.6 26.6c-11.2 0-21.9 3.8-29.4 9.5-1.9-1.9-5-3.2-8.1-3.2C5 34.9 0 39.9 0 45.6c0 4.4 2.5 8.2 6.2 10.1v3.2C6.2 76.1 25.6 90 50 90s43.8-13.9 43.8-31.1v-3.2c3.7-1.8 6.2-5.6 6.2-10.1zm-75 8.3c0-4.4 3.8-7.6 7.5-7.6 4.4 0 7.5 3.8 7.5 7.6s-3.7 7.6-7.5 7.6c-4.4 0-7.5-3.2-7.5-7.6zm43.8 20.9c-5.6 5.7-15.6 5.7-18.8 5.7s-13.1-.6-18.8-5.7c-.6-.6-.6-1.9 0-3.2.6-.6 1.9-.6 3.1 0 3.1 3.8 10.6 4.4 15.6 4.4s12.5-1.3 15.6-4.4c.6-.6 1.9-.6 3.1 0 .8.7.8 1.9.2 3.2zm-1.9-13.3c-4.4 0-7.5-3.8-7.5-7.6s3.8-7.6 7.5-7.6c4.4 0 7.5 3.8 7.5 7.6.6 4.4-3.2 7.6-7.5 7.6z"/>
</svg>