<svg xmlns="http://www.w3.org/2000/svg" xml:space="preserve" viewBox="0 0 100 56">
  <path fill="#fff" d="M84.4 24.9c-1.2 0-2.5 0-3.1.6A28.05 28.05 0 0 0 53.1 0C51.2 0 50 1.2 50 3.1v49.8c0 1.9 1.2 3.1 3.1 3.1h31.2c8.8 0 15.6-6.8 15.6-15.6s-6.8-15.5-15.5-15.5zM40.6 6.2c-1.9 0-3.1 1.2-3.1 3.1v43.6c0 1.9 1.2 3.1 3.1 3.1s3.1-1.2 3.1-3.1V9.3c.1-1.8-1.2-3.1-3.1-3.1zM28.1 18.7c-1.9 0-3.1 1.2-3.1 3.1v31.1c0 1.9 1.2 3.1 3.1 3.1s3.1-1.2 3.1-3.1V21.8c0-1.9-1.2-3.1-3.1-3.1zm-12.5 0c-1.9 0-3.1 1.2-3.1 3.1v31.1c0 1.9 1.2 3.1 3.1 3.1s3.1-1.2 3.1-3.1V21.8c.1-1.9-1.2-3.1-3.1-3.1zM3.1 28C1.2 28 0 29.2 0 31.1v18.7c0 1.9 1.2 3.1 3.1 3.1s3.1-1.2 3.1-3.1V31.1C6.2 29.2 5 28 3.1 28z"/>
</svg>