<svg xmlns="http://www.w3.org/2000/svg" xml:space="preserve" viewBox="0 0 88 100">
  <path fill="#25f4ee" d="M24.2 77.7c1.6.8 3.8 1.3 5.8 1.3 7.4.1 13.5-5.7 13.8-13.1V0h16.4l.9 4H48.9v66c-.3 7.4-6.4 13.2-13.8 13.1-4.6 0-8.3-2.2-10.9-5.4zm10.2-38.1v-4.5c-1.3-.2-2.9 0-4.2 0C13.6 35.2 0 48.8 0 65.5c0 9.7 4.8 18.4 11.7 23.8-4.5-5.3-7-12-7-19.3a30.3 30.3 0 0 1 29.7-30.4zm48.7-13.3v-3.5c-4.7 0-8.7-1.4-12.2-3.6l1.5 1.5c2.9 2.8 6.7 4.8 10.7 5.6z"/>
  <path fill="#fe2c55" d="M16.7 66.4v-.8c.1-7.5 6.3-12.6 13.8-13.7 1.1-.2 2.9-.2 4.2 0l-.2-12.2s3.6-.2 4.9 0v16.7c-1.3-.4-2.7-.7-4-.7-7.6 0-13.8 6.2-13.8 13.8 0 3 .6 5.7 2.1 7.8-3.9-2-6.5-6.2-7-10.9zm49.1-51.7c.2.3.4.5.6.7 1.3 1.4 2.8 2.7 4.5 3.8C67.2 15 65.2 9.6 65.3 4h-4.2c.5 3.5 1.8 6.7 3.8 9.5l.9 1.2zm17.3 11.6v12.9h-1.6c-4.1-.2-8.1-1-11.9-2.4-.2-.1-.3-.1-.5-.2-.3-.1-.5-.2-.8-.3-2.8-1.2-5.5-2.6-7.8-4.3v34.1C60.2 82.2 46.7 96 30.2 96.2c-6 0-11.5-1.9-16.2-4.8 5.5 5.4 13.1 8.6 21.1 8.6 16.7 0 30.2-13.6 30.2-30.3V36.3C72 41 79.8 43.7 88 43.7V27.2c-1.3-.3-3.3-.5-4.9-.9z"/>
  <path fill="#fff" d="M83.1 26.3v12.9h-1.6c-4.2-.2-8.2-1.1-11.9-2.4-.2-.1-1.1-.4-1.3-.5-2.7-1.1-5.4-2.6-7.8-4.3v34.1C60.2 82.2 46.7 96 30.2 96.2c-6 0-11.5-1.9-16.2-4.8-.4-.2-2-1.6-2.4-2.1-4.5-5.3-7-12-7-19.3 0-16.5 13.1-30.1 29.8-30.3l.2 12.2c-1.3-.2-3.1-.2-4.2 0-7.5 1.1-13.7 6.2-13.8 13.7v.1c0 .2 0 .5.1.7.4 4.7 3.1 8.9 6.9 10.9 0 .1.1.1.1.2.1.1.3.1.4.2 2.7 3.2 6.4 5.4 10.9 5.4 7.4.1 13.5-5.7 13.8-13.1V4H61c.5 3.4 1.7 6.2 3.1 8.4.2.4 1.4 1.9 1.6 2.2.2.2.4.5.6.7 1.5 1.7 2.7 2.6 4.5 3.8l1.5 1.5c3 2.9 6.8 4.9 10.8 5.7z"/>
</svg>