<svg xmlns="http://www.w3.org/2000/svg" xml:space="preserve" viewBox="0 0 100 81">
  <path fill="#fff" d="M100 9.3c-3.8 1.9-7.5 2.5-11.9 3.1 4.4-2.5 7.5-6.2 8.8-11.2-3.8 2.5-8.1 3.7-13.1 5C80 2.5 75 0 68.8 0c-11.4.4-20.4 9.9-20 21.3 0 1.4.2 2.8.6 4.2-16.9-1.2-32.5-9.3-42.5-21.8C5 6.9 4.4 10 4.4 14.3c0 6.9 3.7 13.1 9.4 16.8-3.1 0-6.2-1.2-9.4-2.5 0 10 6.9 18.1 16.2 19.9-1.9.6-3.8.6-5.6.6-1.3 0-2.5 0-3.8-.6 2.5 8.1 10 14.3 19.4 14.3C23.8 68.5 15 71.7 5 71.7H0C9.4 77.3 20 81 31.2 81c37.5 0 58.1-31.2 58.1-57.9v-2.5c4.5-3.2 8.2-6.9 10.7-11.3z"/>
</svg>