<svg xmlns="http://www.w3.org/2000/svg" xml:space="preserve" viewBox="0 0 100 58">
  <path fill="#fff" fill-rule="evenodd" d="M96.5 3.7c.6-2.4 0-3.7-3.1-3.7H82.3c-2.5 0-4.3 1.2-4.9 3.1 0 0-5.6 13.4-13.6 22-1.9 2.4-3.1 3.1-4.3 3.1-.6 0-1.9-.6-1.9-3.1V3.7c.6-2.5-.7-3.7-2.5-3.7H37.7c-1.9 0-2.5 1.2-2.5 2.4 0 2.4 3.7 3.1 4.3 10.4v15.9c0 3.7-.6 4.3-1.9 4.3C34 33 25.4 19.5 19.8 4.3c-1.2-3.1-2.5-4.3-5-4.3H3.7C.6 0 0 1.2 0 3.1c0 3.1 3.7 17.1 17.3 35.4C26 51.3 39 58 50.1 58c6.8 0 8-1.8 8-4.3v-9.2c0-3.1.6-3.7 3.1-3.7 1.9 0 4.3.6 10.5 6.7 7.4 7.3 8.7 10.4 13 10.4h11.1c3.1 0 4.9-1.8 3.7-4.3-1.2-3.1-4.3-7.3-9.3-12.8-2.5-3.1-6.2-6.1-7.4-7.9-1.9-1.8-1.2-3.1 0-4.9-.5.7 12.5-17.6 13.7-24.3z" clip-rule="evenodd"/>
</svg>